# xmcd CD database file
#
# Track frame offsets:
#	150
#	19479
#	53369
#	91556
#	106156
#	121794
#	148261
#	165154
#	199198
#	228480
#	248994
#
# Disc length: 3682 seconds
#
# Revision: 4
# Processed by: cddbd v1.5.2PL0 Copyright (c) Steve Scherf et al.
# Submitted via: CDex 1.70beta3
#
DISCID=830e600b
DTITLE=Diverse System - Diverse System Original #03
DYEAR=2003
DGENRE=Soundtrack
TTITLE0=Hit Back - EarBreaker
TTITLE1=神化 -brilliant treatment- - Y-Itoh
TTITLE2=mebius - Is-m
TTITLE3=odd-beat - off-beat
TTITLE4=house#01 - G3
TTITLE5=floating - point underflow - SIGN
TTITLE6=Tabletop Works - uchu-jin
TTITLE7=Satisfy U - HIRO
TTITLE8=Sleepers,wake,the voice is calling - Hiroyuki Oshima feat. Kay
TTITLE9=ちりめん - k-shi feat. Reyca
TTITLE10=ホシマジナイ - onoken feat. ｂ
EXTD=YEAR: 2003
EXTT0=
EXTT1=
EXTT2=
EXTT3=
EXTT4=
EXTT5=
EXTT6=
EXTT7=
EXTT8=
EXTT9=
EXTT10=
PLAYORDER=
